<?xml version="1.0" encoding="utf-8"?>
<!-- Generator: Adobe Illustrator 15.0.2, SVG Export Plug-In . SVG Version: 6.00 Build 0)  -->
<!DOCTYPE svg PUBLIC "-//W3C//DTD SVG 1.1//EN" "http://www.w3.org/Graphics/SVG/1.1/DTD/svg11.dtd">
<svg version="1.1" id="Layer_1" xmlns="http://www.w3.org/2000/svg" xmlns:xlink="http://www.w3.org/1999/xlink" x="0px" y="0px"
	 width="20px" height="20px" viewBox="0 0 20 20" enable-background="new 0 0 20 20" xml:space="preserve">
<g id="Layer_1_1_" display="none">
	<rect x="2" y="4" display="inline" width="16" height="14"/>
	<polygon display="inline" fill="#D8D8D8" points="18,4 18,5 18,7 2,7 2,5 2,4 	"/>
	<path display="inline" fill="none" stroke="#000000" stroke-width="0.7819" stroke-miterlimit="10" d="M7,7c0,0,0.055-2,3.002-2
		C12.948,5,13,7,13,7"/>
	<path display="inline" fill="none" stroke="#000000" stroke-width="0.7815" stroke-miterlimit="10" d="M7,4c0,0,0.055-2,3.002-2
		C12.948,2,13,4,13,4"/>
</g>
<g>
	<path d="M10,2c2.206,0,4,1.794,4,4s-1.794,4-4,4S6,8.206,6,6S7.794,2,10,2 M10,1C7.24,1,5,3.24,5,6s2.24,5,5,5c2.762,0,5-2.24,5-5
		S12.762,1,10,1L10,1z"/>
</g>
<g>
	<path d="M6.749,12.02C7.33,12.354,8.625,13,10,13s2.67-0.646,3.251-0.98c1.888,0.289,2.548,3.836,2.707,5.98H4.041
		C4.198,15.855,4.856,12.309,6.749,12.02 M13,11c0,0-1.5,1-3,1s-3-1-3-1c-4,0-4,8-4,8h14C17,19,17,11,13,11L13,11z"/>
</g>
</svg>
