<?xml version="1.0" encoding="utf-8"?>
<!-- Generator: Adobe Illustrator 15.0.2, SVG Export Plug-In . SVG Version: 6.00 Build 0)  -->
<!DOCTYPE svg PUBLIC "-//W3C//DTD SVG 1.1//EN" "http://www.w3.org/Graphics/SVG/1.1/DTD/svg11.dtd">
<svg version="1.1" id="Layer_1" xmlns="http://www.w3.org/2000/svg" xmlns:xlink="http://www.w3.org/1999/xlink" x="0px" y="0px"
	 width="20px" height="20px" viewBox="0 0 20 20" enable-background="new 0 0 20 20" xml:space="preserve">
<g id="Layer_1_1_" display="none">
	<rect x="2" y="4" display="inline" width="16" height="14"/>
	<polygon display="inline" fill="#D8D8D8" points="18,4 18,5 18,7 2,7 2,5 2,4 	"/>
	<path display="inline" fill="none" stroke="#000000" stroke-width="0.7819" stroke-miterlimit="10" d="M7,7c0,0,0.055-2,3.002-2
		C12.948,5,13,7,13,7"/>
	<path display="inline" fill="none" stroke="#000000" stroke-width="0.7815" stroke-miterlimit="10" d="M7,4c0,0,0.055-2,3.002-2
		C12.948,2,13,4,13,4"/>
</g>
<g>
	<path d="M7,2.143c2.678,0,4.857,2.179,4.857,4.857c0,2.678-2.179,4.857-4.857,4.857c-2.679,0-4.857-2.179-4.857-4.857
		C2.143,4.322,4.322,2.143,7,2.143 M7,1C3.687,1,1,3.687,1,7c0,3.314,2.687,6,6,6c3.314,0,6-2.686,6-6C13,3.687,10.314,1,7,1L7,1z"
		/>
</g>
<line fill="none" stroke="#000000" stroke-width="2" stroke-miterlimit="10" x1="18" y1="18" x2="11" y2="11"/>
</svg>
